{
    "asset" : {
        "generator" : "Khronos glTF Blender I/O v1.7.33",
        "version" : "2.0"
    },
    "scene" : 0,
    "scenes" : [
        {
            "name" : "Scene",
            "nodes" : [
                8
            ]
        }
    ],
    "nodes" : [
        {
            "mesh" : 0,
            "name" : "Box001"
        },
        {
            "mesh" : 1,
            "name" : "Box005"
        },
        {
            "mesh" : 2,
            "name" : "Box007"
        },
        {
            "mesh" : 3,
            "name" : "Box008"
        },
        {
            "mesh" : 4,
            "name" : "Box009"
        },
        {
            "mesh" : 5,
            "name" : "Object001"
        },
        {
            "mesh" : 6,
            "name" : "Object002"
        },
        {
            "children" : [
                0,
                1,
                2,
                3,
                4,
                5,
                6
            ],
            "name" : "sojamax_megafinal",
            "translation" : [
                0.023448944091796875,
                0.007499999832361937,
                0
            ]
        },
        {
            "children" : [
                7
            ],
            "name" : "Default",
            "scale" : [
                0.0010000000474974513,
                0.0010000000474974513,
                0.0010000000474974513
            ]
        }
    ],
    "materials" : [
        {
            "doubleSided" : true,
            "name" : "Material_0",
            "normalTexture" : {
                "index" : 0
            },
            "pbrMetallicRoughness" : {
                "baseColorTexture" : {
                    "index" : 1
                },
                "metallicFactor" : 0
            }
        },
        {
            "doubleSided" : true,
            "name" : "Material_3",
            "pbrMetallicRoughness" : {
                "baseColorTexture" : {
                    "index" : 2
                },
                "metallicFactor" : 0,
                "roughnessFactor" : 0.5
            }
        },
        {
            "doubleSided" : true,
            "name" : "Material_5",
            "pbrMetallicRoughness" : {
                "baseColorTexture" : {
                    "index" : 3
                },
                "metallicFactor" : 0,
                "roughnessFactor" : 0.5
            }
        },
        {
            "doubleSided" : true,
            "name" : "Material_6",
            "pbrMetallicRoughness" : {
                "baseColorTexture" : {
                    "index" : 4
                },
                "metallicFactor" : 0,
                "roughnessFactor" : 0.5
            }
        },
        {
            "doubleSided" : true,
            "name" : "Material_1",
            "pbrMetallicRoughness" : {
                "baseColorTexture" : {
                    "index" : 5
                },
                "metallicFactor" : 0
            }
        },
        {
            "doubleSided" : true,
            "name" : "Material_2",
            "pbrMetallicRoughness" : {
                "baseColorTexture" : {
                    "index" : 6
                },
                "metallicFactor" : 0,
                "roughnessFactor" : 0.550000011920929
            }
        }
    ],
    "meshes" : [
        {
            "name" : "Box001-mesh",
            "primitives" : [
                {
                    "attributes" : {
                        "POSITION" : 0,
                        "NORMAL" : 1,
                        "TEXCOORD_0" : 2
                    },
                    "indices" : 3,
                    "material" : 0
                }
            ]
        },
        {
            "name" : "Box005-mesh",
            "primitives" : [
                {
                    "attributes" : {
                        "POSITION" : 4,
                        "NORMAL" : 5,
                        "TEXCOORD_0" : 6
                    },
                    "indices" : 7,
                    "material" : 1
                }
            ]
        },
        {
            "name" : "Box007-mesh",
            "primitives" : [
                {
                    "attributes" : {
                        "POSITION" : 8,
                        "NORMAL" : 9,
                        "TEXCOORD_0" : 10
                    },
                    "indices" : 7,
                    "material" : 0
                }
            ]
        },
        {
            "name" : "Box008-mesh",
            "primitives" : [
                {
                    "attributes" : {
                        "POSITION" : 11,
                        "NORMAL" : 12,
                        "TEXCOORD_0" : 13
                    },
                    "indices" : 7,
                    "material" : 2
                }
            ]
        },
        {
            "name" : "Box009-mesh",
            "primitives" : [
                {
                    "attributes" : {
                        "POSITION" : 14,
                        "NORMAL" : 15,
                        "TEXCOORD_0" : 16
                    },
                    "indices" : 7,
                    "material" : 3
                }
            ]
        },
        {
            "name" : "Object001-mesh",
            "primitives" : [
                {
                    "attributes" : {
                        "POSITION" : 17,
                        "NORMAL" : 18,
                        "TEXCOORD_0" : 19
                    },
                    "indices" : 20,
                    "material" : 4
                }
            ]
        },
        {
            "name" : "Object002-mesh",
            "primitives" : [
                {
                    "attributes" : {
                        "POSITION" : 21,
                        "NORMAL" : 22,
                        "TEXCOORD_0" : 23
                    },
                    "indices" : 24,
                    "material" : 5
                }
            ]
        }
    ],
    "textures" : [
        {
            "sampler" : 0,
            "source" : 0
        },
        {
            "sampler" : 0,
            "source" : 1
        },
        {
            "sampler" : 0,
            "source" : 1
        },
        {
            "sampler" : 0,
            "source" : 1
        },
        {
            "sampler" : 0,
            "source" : 1
        },
        {
            "sampler" : 0,
            "source" : 2
        },
        {
            "sampler" : 0,
            "source" : 2
        }
    ],
    "images" : [
        {
            "mimeType" : "image/jpeg",
            "name" : "platabanda+maneta_normal",
            "uri" : "platabandamaneta_normal.jpg"
        },
        {
            "mimeType" : "image/jpeg",
            "name" : "Image_0",
            "uri" : "Image_0.jpg"
        },
        {
            "mimeType" : "image/jpeg",
            "name" : "Image_1",
            "uri" : "Image_1.jpg"
        }
    ],
    "accessors" : [
        {
            "bufferView" : 0,
            "componentType" : 5126,
            "count" : 2040,
            "max" : [
                67.5,
                25,
                95
            ],
            "min" : [
                -67.5,
                0,
                -95
            ],
            "type" : "VEC3"
        },
        {
            "bufferView" : 1,
            "componentType" : 5126,
            "count" : 2040,
            "type" : "VEC3"
        },
        {
            "bufferView" : 2,
            "componentType" : 5126,
            "count" : 2040,
            "type" : "VEC2"
        },
        {
            "bufferView" : 3,
            "componentType" : 5123,
            "count" : 2040,
            "type" : "SCALAR"
        },
        {
            "bufferView" : 4,
            "componentType" : 5126,
            "count" : 1452,
            "max" : [
                -67.69940185546875,
                12.792099952697754,
                69.65339660644531
            ],
            "min" : [
                -68.09449768066406,
                7.792099952697754,
                49.65340042114258
            ],
            "type" : "VEC3"
        },
        {
            "bufferView" : 5,
            "componentType" : 5126,
            "count" : 1452,
            "type" : "VEC3"
        },
        {
            "bufferView" : 6,
            "componentType" : 5126,
            "count" : 1452,
            "type" : "VEC2"
        },
        {
            "bufferView" : 7,
            "componentType" : 5123,
            "count" : 1452,
            "type" : "SCALAR"
        },
        {
            "bufferView" : 8,
            "componentType" : 5126,
            "count" : 1452,
            "max" : [
                -67.69940185546875,
                12.792099952697754,
                -49.606300354003906
            ],
            "min" : [
                -68.09449768066406,
                7.792099952697754,
                -69.6063003540039
            ],
            "type" : "VEC3"
        },
        {
            "bufferView" : 9,
            "componentType" : 5126,
            "count" : 1452,
            "type" : "VEC3"
        },
        {
            "bufferView" : 10,
            "componentType" : 5126,
            "count" : 1452,
            "type" : "VEC2"
        },
        {
            "bufferView" : 11,
            "componentType" : 5126,
            "count" : 1452,
            "max" : [
                68.04759979248047,
                12.795100212097168,
                69.65339660644531
            ],
            "min" : [
                67.65260314941406,
                7.795100212097168,
                49.65340042114258
            ],
            "type" : "VEC3"
        },
        {
            "bufferView" : 12,
            "componentType" : 5126,
            "count" : 1452,
            "type" : "VEC3"
        },
        {
            "bufferView" : 13,
            "componentType" : 5126,
            "count" : 1452,
            "type" : "VEC2"
        },
        {
            "bufferView" : 14,
            "componentType" : 5126,
            "count" : 1452,
            "max" : [
                68.04759979248047,
                12.795100212097168,
                -49.606300354003906
            ],
            "min" : [
                67.65260314941406,
                7.795100212097168,
                -69.6063003540039
            ],
            "type" : "VEC3"
        },
        {
            "bufferView" : 15,
            "componentType" : 5126,
            "count" : 1452,
            "type" : "VEC3"
        },
        {
            "bufferView" : 16,
            "componentType" : 5126,
            "count" : 1452,
            "type" : "VEC2"
        },
        {
            "bufferView" : 17,
            "componentType" : 5126,
            "count" : 510,
            "max" : [
                62.5,
                25.06089973449707,
                90
            ],
            "min" : [
                -62.5,
                24.431299209594727,
                -90
            ],
            "type" : "VEC3"
        },
        {
            "bufferView" : 18,
            "componentType" : 5126,
            "count" : 510,
            "type" : "VEC3"
        },
        {
            "bufferView" : 19,
            "componentType" : 5126,
            "count" : 510,
            "type" : "VEC2"
        },
        {
            "bufferView" : 20,
            "componentType" : 5123,
            "count" : 510,
            "type" : "SCALAR"
        },
        {
            "bufferView" : 21,
            "componentType" : 5126,
            "count" : 30,
            "max" : [
                62.5,
                0.38179999589920044,
                90
            ],
            "min" : [
                -62.5,
                -0.007499999832361937,
                -90
            ],
            "type" : "VEC3"
        },
        {
            "bufferView" : 22,
            "componentType" : 5126,
            "count" : 30,
            "type" : "VEC3"
        },
        {
            "bufferView" : 23,
            "componentType" : 5126,
            "count" : 30,
            "type" : "VEC2"
        },
        {
            "bufferView" : 24,
            "componentType" : 5123,
            "count" : 30,
            "type" : "SCALAR"
        }
    ],
    "bufferViews" : [
        {
            "buffer" : 0,
            "byteLength" : 24480,
            "byteOffset" : 0
        },
        {
            "buffer" : 0,
            "byteLength" : 24480,
            "byteOffset" : 24480
        },
        {
            "buffer" : 0,
            "byteLength" : 16320,
            "byteOffset" : 48960
        },
        {
            "buffer" : 0,
            "byteLength" : 4080,
            "byteOffset" : 65280
        },
        {
            "buffer" : 0,
            "byteLength" : 17424,
            "byteOffset" : 69360
        },
        {
            "buffer" : 0,
            "byteLength" : 17424,
            "byteOffset" : 86784
        },
        {
            "buffer" : 0,
            "byteLength" : 11616,
            "byteOffset" : 104208
        },
        {
            "buffer" : 0,
            "byteLength" : 2904,
            "byteOffset" : 115824
        },
        {
            "buffer" : 0,
            "byteLength" : 17424,
            "byteOffset" : 118728
        },
        {
            "buffer" : 0,
            "byteLength" : 17424,
            "byteOffset" : 136152
        },
        {
            "buffer" : 0,
            "byteLength" : 11616,
            "byteOffset" : 153576
        },
        {
            "buffer" : 0,
            "byteLength" : 17424,
            "byteOffset" : 165192
        },
        {
            "buffer" : 0,
            "byteLength" : 17424,
            "byteOffset" : 182616
        },
        {
            "buffer" : 0,
            "byteLength" : 11616,
            "byteOffset" : 200040
        },
        {
            "buffer" : 0,
            "byteLength" : 17424,
            "byteOffset" : 211656
        },
        {
            "buffer" : 0,
            "byteLength" : 17424,
            "byteOffset" : 229080
        },
        {
            "buffer" : 0,
            "byteLength" : 11616,
            "byteOffset" : 246504
        },
        {
            "buffer" : 0,
            "byteLength" : 6120,
            "byteOffset" : 258120
        },
        {
            "buffer" : 0,
            "byteLength" : 6120,
            "byteOffset" : 264240
        },
        {
            "buffer" : 0,
            "byteLength" : 4080,
            "byteOffset" : 270360
        },
        {
            "buffer" : 0,
            "byteLength" : 1020,
            "byteOffset" : 274440
        },
        {
            "buffer" : 0,
            "byteLength" : 360,
            "byteOffset" : 275460
        },
        {
            "buffer" : 0,
            "byteLength" : 360,
            "byteOffset" : 275820
        },
        {
            "buffer" : 0,
            "byteLength" : 240,
            "byteOffset" : 276180
        },
        {
            "buffer" : 0,
            "byteLength" : 60,
            "byteOffset" : 276420
        }
    ],
    "samplers" : [
        {
            "magFilter" : 9729,
            "minFilter" : 9987
        }
    ],
    "buffers" : [
        {
            "byteLength" : 276480,
            "uri" : "blender3.bin"
        }
    ]
}
